<svg width="32" height="32" viewBox="0 0 32 32" fill="none" xmlns="http://www.w3.org/2000/svg">
  <rect width="32" height="32" rx="6" fill="#3B82F6"/>
  
  <!-- Calendar icon -->
  <rect x="6" y="8" width="20" height="18" rx="2" fill="white" stroke="none"/>
  
  <!-- Calendar header -->
  <rect x="6" y="8" width="20" height="4" rx="2" fill="#1E40AF"/>
  
  <!-- Calendar rings -->
  <circle cx="11" cy="6" r="1" fill="#64748B"/>
  <circle cx="21" cy="6" r="1" fill="#64748B"/>
  
  <!-- Calendar grid -->
  <g fill="#E2E8F0">
    <!-- Week dividers -->
    <rect x="8" y="14" width="16" height="0.5"/>
    <rect x="8" y="17" width="16" height="0.5"/>
    <rect x="8" y="20" width="16" height="0.5"/>
    <rect x="8" y="23" width="16" height="0.5"/>
    
    <!-- Day dividers -->
    <rect x="10.5" y="12" width="0.5" height="12"/>
    <rect x="13.5" y="12" width="0.5" height="12"/>
    <rect x="16.5" y="12" width="0.5" height="12"/>
    <rect x="19.5" y="12" width="0.5" height="12"/>
    <rect x="22.5" y="12" width="0.5" height="12"/>
  </g>
  
  <!-- Today highlight -->
  <rect x="14" y="18" width="2.5" height="2" rx="0.5" fill="#3B82F6"/>
  
  <!-- Task dots -->
  <circle cx="17" cy="16" r="0.8" fill="#10B981"/>
  <circle cx="20" cy="19" r="0.8" fill="#F59E0B"/>
  <circle cx="11" cy="22" r="0.8" fill="#EF4444"/>
</svg>